<?xml version="1.0" encoding="UTF-8"?>
<svg version="1.1" xmlns="http://www.w3.org/2000/svg" width="170" height="138">
<path d="M0 0 C7.31282956 6.8410341 12.88224052 15.90331144 13.2734375 26.08984375 C13.58369542 36.45074043 12.83651554 44.62146401 8 54 C7.68885254 54.61939453 7.37770508 55.23878906 7.05712891 55.87695312 C1.81973069 66.19419561 -4.58430814 75.15471631 -12 84 C-12.98963734 85.19526779 -13.97922038 86.39058053 -14.96875 87.5859375 C-26.60033634 101.53344545 -26.60033634 101.53344545 -31 103 C-37.17111401 98.88592399 -41.51241258 92.81641095 -46 87 C-46.44037598 86.42926758 -46.88075195 85.85853516 -47.33447266 85.27050781 C-60.31361543 68.30666201 -76.16710168 47.35680849 -74 25 C-71.52467022 13.2755338 -65.04765246 2.72129653 -55 -4 C-36.75426154 -13.60840009 -16.33822865 -13.36764162 0 0 Z " fill="#476572" transform="translate(119,19)"/>
<path d="M0 0 C9.00490934 5.64201399 13.86916491 12.36921347 17.20703125 22.3828125 C18.07494571 31.60262508 16.96721471 39.928685 11.62890625 47.671875 C4.61130628 56.11196145 -2.96078216 60.36432612 -13.9609375 61.6328125 C-24.3749599 61.96539605 -32.18752748 58.53495378 -39.7734375 51.5625 C-46.05976943 44.94107575 -48.96056246 38.00790138 -49.29296875 28.8828125 C-48.93592384 19.37649178 -45.78564751 12.27387331 -39.1640625 5.43359375 C-28.5027146 -3.78750616 -12.92301058 -6.29639016 0 0 Z " fill="#FAFAFB" transform="translate(104.79296875,21.6171875)"/>
<path d="M0 0 C1.32 0 2.64 0 4 0 C4 0.99 4 1.98 4 3 C4.66515625 3.24878906 5.3303125 3.49757812 6.015625 3.75390625 C9.70310694 5.29357476 13.21390257 7.08087852 16.75 8.9375 C17.77673828 9.45860352 17.77673828 9.45860352 18.82421875 9.99023438 C23.88334396 12.65003189 23.88334396 12.65003189 25 16 C9.16 16 -6.68 16 -23 16 C-21.75346871 12.26040613 -20.72115445 11.98704598 -17.34375 10.1171875 C-16.40402344 9.58996094 -15.46429688 9.06273437 -14.49609375 8.51953125 C-13.50738281 7.97683594 -12.51867187 7.43414062 -11.5 6.875 C-9.55144376 5.79021054 -7.60349348 4.70433166 -5.65625 3.6171875 C-4.78806641 3.13878418 -3.91988281 2.66038086 -3.02539062 2.16748047 C-1.07130393 1.15780109 -1.07130393 1.15780109 0 0 Z " fill="#FBFBFB" transform="translate(88,45)"/>
<path d="M0 0 C3.5 0.875 3.5 0.875 5.4375 2.0625 C7.0339636 4.78587907 6.88630872 6.78453021 6.5 9.875 C5.125 11.75 5.125 11.75 3.5 12.875 C2.84 12.875 2.18 12.875 1.5 12.875 C1.41911133 13.64247559 1.33822266 14.40995117 1.25488281 15.20068359 C0.5 17.875 0.5 17.875 -1.27832031 19.40478516 C-2.03725586 19.82034668 -2.79619141 20.2359082 -3.578125 20.6640625 C-4.40957031 21.13070312 -5.24101563 21.59734375 -6.09765625 22.078125 C-6.97292969 22.54734375 -7.84820312 23.0165625 -8.75 23.5 C-9.60980469 23.97695313 -10.46960938 24.45390625 -11.35546875 24.9453125 C-13.00983262 25.86298737 -14.66663522 26.77628341 -16.32617188 27.68457031 C-21.17579432 29.98995169 -21.17579432 29.98995169 -24.5 33.875 C-8.66 33.875 7.18 33.875 23.5 33.875 C20.9782497 31.3532497 19.30270555 30.05094558 16.26953125 28.39453125 C15.06586914 27.73227539 15.06586914 27.73227539 13.83789062 27.05664062 C13.00451172 26.60482422 12.17113281 26.15300781 11.3125 25.6875 C10.46751953 25.22408203 9.62253906 24.76066406 8.75195312 24.28320312 C6.67044966 23.14249219 4.58645072 22.00662891 2.5 20.875 C2.5 19.885 2.5 18.895 2.5 17.875 C5.57885517 18.51704231 8.0140801 19.56271826 10.7578125 21.08984375 C11.54800781 21.52876953 12.33820313 21.96769531 13.15234375 22.41992188 C13.96832031 22.87947266 14.78429687 23.33902344 15.625 23.8125 C16.44871094 24.26818359 17.27242187 24.72386719 18.12109375 25.19335938 C24.23623029 28.61123029 24.23623029 28.61123029 26.5 30.875 C25.94444444 35.43055556 25.94444444 35.43055556 24.5 36.875 C22.94549012 36.97867027 21.38631745 37.01351522 19.82836914 37.02026367 C18.83386246 37.02664352 17.83935577 37.03302338 16.81471252 37.03959656 C15.73245895 37.04070938 14.65020538 37.0418222 13.53515625 37.04296875 C11.87969032 37.04796135 11.87969032 37.04796135 10.19078064 37.05305481 C7.85123106 37.05812886 5.51167422 37.06046299 3.17211914 37.06030273 C-0.41857766 37.06248848 -4.00896704 37.08063734 -7.59960938 37.09960938 C-9.86718644 37.10254327 -12.13476498 37.10452809 -14.40234375 37.10546875 C-15.48257309 37.11265427 -16.56280243 37.11983978 -17.67576599 37.12724304 C-18.67342484 37.12416641 -19.67108368 37.12108978 -20.69897461 37.11791992 C-22.02015541 37.12005745 -22.02015541 37.12005745 -23.36802673 37.12223816 C-25.5 36.875 -25.5 36.875 -27.5 34.875 C-27.49609375 32.49609375 -27.49609375 32.49609375 -26.5 29.875 C-23.91015625 27.84765625 -23.91015625 27.84765625 -20.5625 25.9375 C-19.98072998 25.59976563 -19.39895996 25.26203125 -18.79956055 24.9140625 C-17.61138623 24.22460594 -16.41971164 23.5411462 -15.22460938 22.86376953 C-12.71759997 21.42642694 -10.27010929 19.89483732 -7.8125 18.375 C-3.75 15.875 -3.75 15.875 -1.5 15.875 C-1.396875 15.09125 -1.29375 14.3075 -1.1875 13.5 C-0.5 10.875 -0.5 10.875 2.5 8.875 C2.17 7.225 1.84 5.575 1.5 3.875 C-0.15 4.205 -1.8 4.535 -3.5 4.875 C-3.83 5.865 -4.16 6.855 -4.5 7.875 C-5.49 7.875 -6.48 7.875 -7.5 7.875 C-7.14780657 5.26876858 -6.73526531 3.26710885 -5.375 1 C-3.5 -0.125 -3.5 -0.125 0 0 Z " fill="#3F5B69" transform="translate(89.5,27.125)"/>
<path d="M0 0 C3.07885517 0.64204231 5.5140801 1.68771826 8.2578125 3.21484375 C9.04800781 3.65376953 9.83820313 4.09269531 10.65234375 4.54492188 C11.46832031 5.00447266 12.28429687 5.46402344 13.125 5.9375 C13.94871094 6.39318359 14.77242187 6.84886719 15.62109375 7.31835938 C21.73623029 10.73623029 21.73623029 10.73623029 24 13 C23.625 15.625 23.625 15.625 23 18 C22.01 18.33 21.02 18.66 20 19 C20 18.34 20 17.68 20 17 C4.49 17 -11.02 17 -27 17 C-27 16.67 -27 16.34 -27 16 C-11.16 16 4.68 16 21 16 C18.4782497 13.4782497 16.80270555 12.17594558 13.76953125 10.51953125 C12.96708984 10.07802734 12.16464844 9.63652344 11.33789062 9.18164062 C10.50451172 8.72982422 9.67113281 8.27800781 8.8125 7.8125 C7.96751953 7.34908203 7.12253906 6.88566406 6.25195312 6.40820312 C4.17044966 5.26749219 2.08645072 4.13162891 0 3 C0 2.01 0 1.02 0 0 Z " fill="#6E818C" transform="translate(92,45)"/>
<path d="M0 0 C0 0.66 0 1.32 0 2 C-0.99 2.33 -1.98 2.66 -3 3 C-4.71289005 4.72765164 -4.71289005 4.72765164 -6.375 6.8125 C-9.02361939 9.94473143 -11.66539533 12.57483296 -15 15 C-15 10.6682743 -12.773239 9.05183829 -9.94921875 5.94140625 C-3.98390342 0 -3.98390342 0 0 0 Z " fill="#8999A3" transform="translate(68,14)"/>
<path d="M0 0 C-1.81679655 2.00803829 -3.24111255 3.12335991 -5.6875 4.375 C-6.8321875 5.179375 -6.8321875 5.179375 -8 6 C-8.41780879 8.62694422 -8.41780879 8.62694422 -8 11 C-9.32 10.34 -10.64 9.68 -12 9 C-12 6.8125 -12 6.8125 -11 4 C-4.51989893 -1.50663298 -4.51989893 -1.50663298 0 0 Z " fill="#48616D" transform="translate(74,53)"/>
<path d="M0 0 C0 0.99 0 1.98 0 3 C-1.2065625 3.4021875 -1.2065625 3.4021875 -2.4375 3.8125 C-3.283125 4.204375 -4.12875 4.59625 -5 5 C-5.33 5.99 -5.66 6.98 -6 8 C-6.99 8 -7.98 8 -9 8 C-8.64005447 5.3364031 -8.28838998 3.41816548 -6.75 1.1875 C-4.41988723 -0.39364795 -2.75498245 -0.22337696 0 0 Z " fill="#586F7A" transform="translate(91,27)"/>
<path d="M0 0 C3.66881155 0.70554068 6.70450534 2.27735506 10 4 C9.01 4.66 8.02 5.32 7 6 C4.51064409 5.21069203 2.330221 4.1651105 0 3 C0 2.01 0 1.02 0 0 Z " fill="#566E7A" transform="translate(92,45)"/>
<path d="M0 0 C1.32 0.66 2.64 1.32 4 2 C0.04 3.98 0.04 3.98 -4 6 C-4.99 5.34 -5.98 4.68 -7 4 C-1.921875 0.6796875 -1.921875 0.6796875 0 0 Z " fill="#596F7B" transform="translate(86,43)"/>
<path d="M0 0 C2.875 -0.125 2.875 -0.125 6 0 C8 2 8 2 8.125 4.625 C8.08375 5.40875 8.0425 6.1925 8 7 C6.62437146 5.71034824 5.29233607 4.37310707 4 3 C4 2.34 4 1.68 4 1 C2.68 0.67 1.36 0.34 0 0 Z " fill="#435E6B" transform="translate(87,28)"/>
<path d="M0 0 C0.33 0 0.66 0 1 0 C1.1875 2.875 1.1875 2.875 1 6 C0.01 6.66 -0.98 7.32 -2 8 C-2.66 7.34 -3.32 6.68 -4 6 C-2.69593116 3.98079663 -1.36176581 1.98075027 0 0 Z " fill="#5E747F" transform="translate(95,31)"/>
</svg>
